<svg xmlns="http://www.w3.org/2000/svg" xmlns:xlink="http://www.w3.org/1999/xlink" width="220" zoomAndPan="magnify" viewBox="0 0 165 82.499998" height="110" preserveAspectRatio="xMidYMid meet" version="1.0"><defs><clipPath id="1931e61a0b"><path d="M 0.496094 0 L 164.503906 0 L 164.503906 82.003906 L 0.496094 82.003906 Z M 0.496094 0 " clip-rule="nonzero"/></clipPath></defs><g clip-path="url(#1931e61a0b)"><path fill="#ffffff" d="M 0.496094 0 L 164.503906 0 L 164.503906 89.457031 L 0.496094 89.457031 Z M 0.496094 0 " fill-opacity="1" fill-rule="nonzero"/><path fill="#ffffff" d="M 0.496094 0 L 164.503906 0 L 164.503906 82.003906 L 0.496094 82.003906 Z M 0.496094 0 " fill-opacity="1" fill-rule="nonzero"/><path fill="#ffffff" d="M 0.496094 0 L 164.503906 0 L 164.503906 82.003906 L 0.496094 82.003906 Z M 0.496094 0 " fill-opacity="1" fill-rule="nonzero"/></g><path fill="#dd0031" d="M 82.433594 7.792969 L 49.953125 19.375 L 54.90625 62.324219 L 82.433594 77.570312 L 109.960938 62.324219 L 114.914062 19.375 Z M 82.433594 7.792969 " fill-opacity="1" fill-rule="nonzero"/><path fill="#c3002f" d="M 82.433594 7.792969 L 82.433594 15.535156 L 82.433594 15.503906 L 82.433594 77.570312 L 109.960938 62.324219 L 114.914062 19.375 Z M 82.433594 7.792969 " fill-opacity="1" fill-rule="nonzero"/><path fill="#ffffff" d="M 82.433594 15.503906 L 62.128906 61.03125 L 69.699219 61.03125 L 73.78125 50.84375 L 91.015625 50.84375 L 95.097656 61.03125 L 102.667969 61.03125 Z M 88.367188 44.5625 L 76.503906 44.5625 L 82.433594 30.292969 Z M 88.367188 44.5625 " fill-opacity="1" fill-rule="nonzero"/></svg>