<svg xmlns="http://www.w3.org/2000/svg" xmlns:xlink="http://www.w3.org/1999/xlink" width="220" zoomAndPan="magnify" viewBox="0 0 165 82.499998" height="110" preserveAspectRatio="xMidYMid meet" version="1.0"><defs><clipPath id="id1"><path d="M 0.496094 0 L 164.503906 0 L 164.503906 82.003906 L 0.496094 82.003906 Z M 0.496094 0 " clip-rule="nonzero"/></clipPath><clipPath id="id2"><path d="M 153 17 L 160.402344 17 L 160.402344 24 L 153 24 Z M 153 17 " clip-rule="nonzero"/></clipPath><clipPath id="id3"><path d="M 4.597656 19 L 18 19 L 18 51 L 4.597656 51 Z M 4.597656 19 " clip-rule="nonzero"/></clipPath><clipPath id="id4"><path d="M 96 58 L 102 58 L 102 65.113281 L 96 65.113281 Z M 96 58 " clip-rule="nonzero"/></clipPath><clipPath id="id5"><path d="M 115 58 L 121 58 L 121 65.113281 L 115 65.113281 Z M 115 58 " clip-rule="nonzero"/></clipPath></defs><g clip-path="url(#id1)"><path fill="#ffffff" d="M 0.496094 0 L 164.503906 0 L 164.503906 89.457031 L 0.496094 89.457031 Z M 0.496094 0 " fill-opacity="1" fill-rule="nonzero"/><path fill="#ffffff" d="M 0.496094 0 L 164.503906 0 L 164.503906 82.003906 L 0.496094 82.003906 Z M 0.496094 0 " fill-opacity="1" fill-rule="nonzero"/><path fill="#ffffff" d="M 0.496094 0 L 164.503906 0 L 164.503906 82.003906 L 0.496094 82.003906 Z M 0.496094 0 " fill-opacity="1" fill-rule="nonzero"/></g><path fill="#e00000" d="M 54.953125 26.339844 L 55.625 26.339844 C 59.683594 26.359375 62.960938 29.507812 62.949219 33.371094 L 62.949219 43.136719 C 62.945312 43.535156 63.054688 43.929688 63.257812 44.277344 C 63.460938 44.621094 63.757812 44.902344 64.109375 45.09375 C 64.472656 45.296875 64.878906 45.398438 65.292969 45.398438 C 65.707031 45.398438 66.113281 45.296875 66.472656 45.09375 C 66.828125 44.902344 67.121094 44.621094 67.328125 44.277344 C 67.53125 43.929688 67.636719 43.535156 67.636719 43.136719 L 67.636719 32.78125 C 67.675781 31.191406 68.332031 29.675781 69.464844 28.554688 C 70.597656 27.429688 72.125 26.785156 73.722656 26.753906 C 75.324219 26.71875 76.875 27.300781 78.058594 28.371094 C 79.238281 29.445312 79.957031 30.929688 80.066406 32.519531 L 80.066406 43.019531 C 80.0625 43.417969 80.171875 43.808594 80.378906 44.152344 C 80.582031 44.496094 80.875 44.777344 81.230469 44.96875 C 81.589844 45.167969 81.996094 45.273438 82.40625 45.273438 C 82.820312 45.273438 83.222656 45.167969 83.585938 44.96875 C 83.9375 44.777344 84.230469 44.496094 84.4375 44.152344 C 84.640625 43.808594 84.75 43.417969 84.75 43.019531 L 84.75 32.605469 C 84.996094 30.855469 85.878906 29.253906 87.226562 28.101562 C 88.574219 26.949219 90.296875 26.324219 92.074219 26.339844 L 92.746094 26.339844 L 92.746094 31.117188 L 92.074219 31.117188 C 91.464844 31.109375 90.875 31.339844 90.433594 31.765625 C 89.996094 32.1875 89.742188 32.765625 89.734375 33.375 L 89.734375 43.019531 C 89.730469 44.265625 89.390625 45.484375 88.746094 46.554688 C 88.105469 47.625 87.183594 48.5 86.082031 49.09375 C 84.957031 49.710938 83.695312 50.035156 82.410156 50.035156 C 81.125 50.035156 79.859375 49.710938 78.734375 49.09375 C 77.632812 48.5 76.714844 47.625 76.070312 46.554688 C 75.429688 45.484375 75.089844 44.265625 75.085938 43.019531 L 75.085938 32.605469 C 75.054688 32.304688 74.910156 32.023438 74.679688 31.824219 C 74.453125 31.628906 74.15625 31.523438 73.851562 31.53125 C 73.527344 31.53125 73.21875 31.65625 72.988281 31.878906 C 72.757812 32.101562 72.625 32.402344 72.613281 32.722656 L 72.613281 43.019531 C 72.613281 44.265625 72.273438 45.484375 71.628906 46.554688 C 70.988281 47.625 70.066406 48.5 68.964844 49.09375 C 67.839844 49.710938 66.578125 50.035156 65.292969 50.035156 C 64.007812 50.035156 62.742188 49.710938 61.617188 49.09375 C 60.515625 48.5 59.597656 47.625 58.953125 46.554688 C 58.3125 45.484375 57.972656 44.265625 57.96875 43.019531 L 57.96875 33.371094 C 57.957031 32.765625 57.707031 32.1875 57.265625 31.761719 C 56.828125 31.339844 56.238281 31.105469 55.625 31.117188 L 54.953125 31.117188 Z M 54.953125 26.339844 " fill-opacity="1" fill-rule="nonzero"/><path fill="#090e10" d="M 42.273438 31.578125 C 41.371094 31.558594 40.480469 31.757812 39.675781 32.15625 C 38.96875 32.535156 38.34375 33.046875 37.839844 33.667969 C 37.347656 34.320312 36.980469 35.058594 36.765625 35.847656 C 36.523438 36.671875 36.402344 37.523438 36.40625 38.382812 C 36.402344 39.253906 36.523438 40.125 36.765625 40.964844 C 36.988281 41.734375 37.351562 42.457031 37.839844 43.097656 C 38.34375 43.71875 38.96875 44.234375 39.675781 44.609375 C 40.480469 45.007812 41.371094 45.207031 42.273438 45.1875 C 43.15625 45.210938 44.035156 45.011719 44.824219 44.609375 C 45.539062 44.25 46.167969 43.730469 46.65625 43.097656 C 47.167969 42.46875 47.550781 41.742188 47.777344 40.964844 C 48.015625 40.125 48.136719 39.253906 48.136719 38.382812 C 48.140625 37.523438 48.019531 36.671875 47.777344 35.847656 C 47.558594 35.054688 47.175781 34.3125 46.65625 33.667969 C 46.167969 33.035156 45.539062 32.515625 44.824219 32.15625 C 44.035156 31.753906 43.15625 31.554688 42.273438 31.578125 Z M 42.273438 26.59375 C 43.941406 26.566406 45.601562 26.867188 47.152344 27.484375 C 48.546875 28.03125 49.804688 28.882812 50.824219 29.976562 C 51.832031 31.046875 52.59375 32.324219 53.0625 33.714844 C 53.613281 35.210938 53.886719 36.792969 53.867188 38.386719 C 53.882812 39.992188 53.609375 41.589844 53.0625 43.101562 C 52.578125 44.488281 51.816406 45.757812 50.824219 46.839844 C 49.792969 47.910156 48.539062 48.746094 47.152344 49.289062 C 43.992188 50.476562 40.507812 50.476562 37.347656 49.289062 C 35.976562 48.738281 34.742188 47.902344 33.722656 46.839844 C 32.722656 45.753906 31.949219 44.484375 31.4375 43.101562 C 30.917969 41.585938 30.660156 39.988281 30.675781 38.386719 C 30.660156 36.796875 30.917969 35.214844 31.4375 33.714844 C 31.933594 32.324219 32.710938 31.054688 33.722656 29.976562 C 34.730469 28.890625 35.96875 28.039062 37.347656 27.484375 C 38.914062 26.867188 40.585938 26.5625 42.273438 26.59375 Z M 42.273438 26.59375 " fill-opacity="1" fill-rule="nonzero"/><path fill="#090e10" d="M 106.257812 26.339844 L 111.71875 26.339844 L 111.71875 29.097656 L 111.808594 29.097656 C 112.558594 28.160156 113.546875 27.4375 114.671875 27.007812 C 115.722656 26.570312 116.847656 26.34375 117.988281 26.339844 C 120.703125 26.339844 122.671875 26.992188 123.894531 28.296875 C 125.152344 29.601562 125.777344 31.5 125.777344 33.992188 L 125.777344 49.390625 L 120.316406 49.390625 L 120.316406 35.640625 C 120.316406 35.140625 120.242188 34.644531 120.09375 34.171875 C 119.988281 33.699219 119.773438 33.253906 119.464844 32.878906 C 119.179688 32.480469 118.792969 32.15625 118.347656 31.945312 C 117.785156 31.691406 117.171875 31.570312 116.554688 31.589844 C 115.910156 31.585938 115.273438 31.707031 114.675781 31.945312 C 114.085938 32.167969 113.5625 32.535156 113.15625 33.015625 C 112.675781 33.542969 112.308594 34.164062 112.082031 34.839844 C 111.824219 35.703125 111.703125 36.605469 111.722656 37.507812 L 111.722656 49.390625 L 106.257812 49.390625 Z M 106.257812 26.339844 " fill-opacity="1" fill-rule="nonzero"/><path fill="#090e10" d="M 95.914062 26.339844 L 101.375 26.339844 L 101.375 49.390625 L 95.914062 49.390625 Z M 95.914062 26.339844 " fill-opacity="1" fill-rule="nonzero"/><g clip-path="url(#id2)"><path fill="#090e10" d="M 156.949219 23.914062 C 156.265625 23.914062 155.597656 23.710938 155.027344 23.335938 C 154.460938 22.957031 154.015625 22.421875 153.753906 21.792969 C 153.492188 21.164062 153.425781 20.476562 153.558594 19.808594 C 153.691406 19.140625 154.019531 18.53125 154.503906 18.050781 C 154.988281 17.570312 155.601562 17.242188 156.273438 17.109375 C 156.945312 16.976562 157.636719 17.046875 158.269531 17.304688 C 158.902344 17.566406 159.441406 18.003906 159.820312 18.570312 C 160.199219 19.136719 160.402344 19.800781 160.402344 20.480469 C 160.390625 21.386719 160.019531 22.25 159.375 22.890625 C 158.730469 23.535156 157.859375 23.898438 156.949219 23.914062 Z M 156.949219 17.640625 C 156.382812 17.640625 155.832031 17.808594 155.359375 18.117188 C 154.890625 18.429688 154.527344 18.875 154.308594 19.394531 C 154.09375 19.910156 154.035156 20.480469 154.148438 21.03125 C 154.257812 21.582031 154.527344 22.089844 154.929688 22.484375 C 155.328125 22.882812 155.835938 23.152344 156.390625 23.261719 C 156.945312 23.371094 157.519531 23.316406 158.039062 23.101562 C 158.5625 22.886719 159.007812 22.523438 159.324219 22.054688 C 159.636719 21.589844 159.804688 21.039062 159.804688 20.480469 C 159.792969 19.730469 159.488281 19.011719 158.957031 18.484375 C 158.421875 17.953125 157.703125 17.652344 156.949219 17.644531 Z M 156.949219 17.640625 " fill-opacity="1" fill-rule="nonzero"/></g><path fill="#090e10" d="M 157.546875 22.128906 L 156.914062 20.902344 L 156.347656 20.902344 L 156.347656 22.128906 L 155.75 22.128906 L 155.75 18.867188 L 156.945312 18.867188 C 157.136719 18.847656 157.328125 18.875 157.503906 18.941406 C 157.683594 19.007812 157.839844 19.113281 157.96875 19.253906 C 158.101562 19.4375 158.175781 19.660156 158.179688 19.886719 C 158.191406 20.089844 158.128906 20.292969 158.007812 20.457031 C 157.882812 20.621094 157.710938 20.742188 157.511719 20.796875 L 158.25 22.128906 Z M 156.949219 19.394531 L 156.382812 19.394531 L 156.382812 20.410156 L 156.769531 20.410156 C 157.160156 20.410156 157.582031 20.375 157.582031 19.886719 C 157.574219 19.8125 157.550781 19.738281 157.515625 19.671875 C 157.476562 19.609375 157.429688 19.550781 157.371094 19.503906 C 157.308594 19.460938 157.242188 19.425781 157.167969 19.40625 C 157.097656 19.386719 157.023438 19.382812 156.949219 19.390625 Z M 156.949219 19.394531 " fill-opacity="1" fill-rule="nonzero"/><g clip-path="url(#id3)"><path fill="#090e10" d="M 12.988281 34.019531 L 12.988281 50.226562 L 7.488281 50.226562 L 7.488281 34.019531 L 4.597656 34.019531 L 4.597656 29.613281 L 7.488281 29.613281 L 7.488281 25.972656 C 7.476562 25.09375 7.566406 24.210938 7.757812 23.351562 C 7.9375 22.589844 8.914062 19.035156 14.746094 19.035156 C 15.257812 19.035156 15.769531 19.058594 16.28125 19.101562 C 16.789062 19.144531 17.300781 19.199219 17.8125 19.257812 L 17.8125 23.828125 C 17.601562 23.777344 17.386719 23.746094 17.171875 23.738281 C 16.800781 23.710938 16.457031 23.695312 16.132812 23.695312 C 15.519531 23.667969 14.910156 23.769531 14.339844 23.988281 C 13.960938 24.140625 13.640625 24.394531 13.40625 24.726562 C 13.214844 25.023438 13.09375 25.363281 13.054688 25.714844 C 13.007812 26.070312 12.988281 26.429688 12.988281 26.789062 L 12.988281 29.617188 L 17.8125 29.617188 L 17.8125 34.019531 Z M 12.988281 34.019531 " fill-opacity="1" fill-rule="nonzero"/></g><path fill="#090e10" d="M 30.035156 45.523438 C 29.664062 45.554688 29.316406 45.570312 28.996094 45.570312 C 28.382812 45.597656 27.773438 45.496094 27.203125 45.277344 C 26.824219 45.125 26.5 44.867188 26.269531 44.539062 C 26.078125 44.238281 25.957031 43.902344 25.914062 43.550781 C 25.871094 43.195312 25.847656 42.835938 25.851562 42.476562 L 25.851562 19.035156 L 20.347656 19.035156 L 20.347656 43.289062 C 20.339844 44.171875 20.429688 45.050781 20.621094 45.910156 C 20.800781 46.671875 21.777344 50.226562 27.609375 50.226562 C 28.117188 50.226562 28.628906 50.207031 29.140625 50.160156 C 29.652344 50.117188 30.164062 50.0625 30.675781 50.003906 L 30.675781 45.433594 C 30.464844 45.488281 30.25 45.519531 30.035156 45.523438 Z M 30.035156 45.523438 " fill-opacity="1" fill-rule="nonzero"/><path fill="#090e10" d="M 146.300781 26.339844 L 146.300781 28.070312 C 145.90625 27.851562 145.5 27.65625 145.085938 27.484375 C 141.925781 26.300781 138.4375 26.300781 135.277344 27.484375 C 133.898438 28.039062 132.660156 28.890625 131.652344 29.976562 C 130.640625 31.054688 129.863281 32.324219 129.367188 33.714844 C 128.847656 35.214844 128.589844 36.796875 128.605469 38.386719 C 128.59375 39.988281 128.851562 41.585938 129.367188 43.101562 C 129.878906 44.484375 130.65625 45.753906 131.652344 46.839844 C 132.671875 47.902344 133.910156 48.738281 135.277344 49.289062 C 138.4375 50.476562 141.925781 50.476562 145.085938 49.289062 C 145.5 49.117188 145.90625 48.921875 146.300781 48.703125 L 146.300781 49 C 146.300781 49.253906 146.300781 49.496094 146.300781 49.726562 C 146.3125 50.503906 146.207031 51.277344 145.992188 52.023438 C 145.78125 52.796875 145.421875 53.523438 144.933594 54.160156 C 144.480469 54.785156 143.886719 55.304688 143.203125 55.671875 C 142.464844 56.074219 141.632812 56.273438 140.792969 56.25 C 139.9375 56.269531 139.09375 56.070312 138.339844 55.671875 C 137.667969 55.289062 137.078125 54.773438 136.609375 54.160156 C 136.328125 53.769531 136.09375 53.347656 135.910156 52.902344 L 130.226562 52.902344 C 130.324219 53.332031 130.433594 53.75 130.566406 54.160156 C 131.042969 55.53125 131.773438 56.796875 132.722656 57.898438 C 133.671875 58.949219 134.839844 59.785156 136.144531 60.347656 C 139.113281 61.53125 142.429688 61.53125 145.398438 60.347656 C 146.722656 59.792969 147.90625 58.957031 148.867188 57.898438 C 149.8125 56.800781 150.527344 55.53125 150.980469 54.160156 C 151.519531 52.703125 151.820312 51.171875 151.871094 49.617188 L 151.875 49.617188 L 151.875 26.339844 Z M 145.710938 40.96875 C 145.484375 41.746094 145.101562 42.472656 144.589844 43.101562 C 144.101562 43.734375 143.472656 44.253906 142.757812 44.613281 C 141.96875 45.015625 141.089844 45.214844 140.207031 45.191406 C 139.304688 45.210938 138.414062 45.011719 137.609375 44.613281 C 136.902344 44.238281 136.277344 43.722656 135.773438 43.101562 C 135.285156 42.460938 134.921875 41.738281 134.699219 40.96875 C 134.457031 40.128906 134.339844 39.257812 134.339844 38.386719 C 134.335938 37.527344 134.457031 36.675781 134.699219 35.851562 C 134.914062 35.0625 135.28125 34.324219 135.773438 33.671875 C 136.277344 33.050781 136.902344 32.539062 137.609375 32.160156 C 138.414062 31.761719 139.304688 31.5625 140.207031 31.582031 C 141.089844 31.558594 141.96875 31.757812 142.757812 32.160156 C 143.472656 32.519531 144.101562 33.039062 144.589844 33.671875 C 145.109375 34.316406 145.492188 35.054688 145.710938 35.851562 C 145.953125 36.675781 146.074219 37.527344 146.070312 38.386719 C 146.070312 39.257812 145.949219 40.128906 145.710938 40.96875 Z M 145.710938 40.96875 " fill-opacity="1" fill-rule="nonzero"/><path fill="#090e10" d="M 98.644531 23.945312 C 100.488281 23.945312 101.984375 22.460938 101.984375 20.625 C 101.984375 18.792969 100.488281 17.308594 98.644531 17.308594 C 96.796875 17.308594 95.304688 18.792969 95.304688 20.625 C 95.304688 22.460938 96.796875 23.945312 98.644531 23.945312 Z M 98.644531 23.945312 " fill-opacity="1" fill-rule="nonzero"/><path fill="#090e10" d="M 11.929688 63.175781 L 11.066406 63.175781 L 13.566406 56.410156 L 14.414062 56.410156 L 16.910156 63.175781 L 16.046875 63.175781 L 14.015625 57.480469 L 13.964844 57.480469 Z M 12.25 60.53125 L 15.730469 60.53125 L 15.730469 61.257812 L 12.25 61.257812 Z M 12.25 60.53125 " fill-opacity="1" fill-rule="nonzero"/><path fill="#090e10" d="M 28.3125 58.523438 L 27.492188 58.523438 C 27.441406 58.289062 27.355469 58.082031 27.234375 57.902344 C 27.117188 57.722656 26.96875 57.574219 26.796875 57.453125 C 26.625 57.328125 26.4375 57.238281 26.230469 57.175781 C 26.019531 57.113281 25.804688 57.082031 25.578125 57.082031 C 25.167969 57.082031 24.792969 57.1875 24.460938 57.394531 C 24.128906 57.601562 23.863281 57.90625 23.667969 58.308594 C 23.472656 58.710938 23.375 59.207031 23.375 59.792969 C 23.375 60.378906 23.472656 60.871094 23.667969 61.273438 C 23.863281 61.679688 24.128906 61.984375 24.460938 62.191406 C 24.792969 62.398438 25.167969 62.5 25.578125 62.5 C 25.804688 62.5 26.019531 62.46875 26.230469 62.410156 C 26.4375 62.347656 26.625 62.253906 26.796875 62.132812 C 26.96875 62.011719 27.117188 61.859375 27.234375 61.683594 C 27.355469 61.5 27.441406 61.292969 27.492188 61.058594 L 28.3125 61.058594 C 28.25 61.40625 28.140625 61.714844 27.976562 61.988281 C 27.8125 62.261719 27.609375 62.496094 27.363281 62.6875 C 27.121094 62.875 26.847656 63.019531 26.542969 63.117188 C 26.242188 63.21875 25.921875 63.265625 25.578125 63.265625 C 25 63.265625 24.484375 63.125 24.03125 62.84375 C 23.578125 62.5625 23.222656 62.160156 22.964844 61.640625 C 22.707031 61.121094 22.578125 60.503906 22.578125 59.792969 C 22.578125 59.078125 22.707031 58.460938 22.964844 57.941406 C 23.222656 57.421875 23.578125 57.019531 24.03125 56.738281 C 24.484375 56.457031 25 56.316406 25.578125 56.316406 C 25.921875 56.316406 26.242188 56.367188 26.542969 56.464844 C 26.847656 56.5625 27.121094 56.710938 27.363281 56.902344 C 27.609375 57.089844 27.8125 57.320312 27.976562 57.59375 C 28.140625 57.867188 28.25 58.175781 28.3125 58.523438 Z M 28.3125 58.523438 " fill-opacity="1" fill-rule="nonzero"/><path fill="#090e10" d="M 30.660156 56.410156 L 31.441406 56.410156 L 31.441406 63.175781 L 30.660156 63.175781 Z M 30.660156 56.410156 " fill-opacity="1" fill-rule="nonzero"/><path fill="#090e10" d="M 35.5 63.292969 C 35.175781 63.292969 34.882812 63.234375 34.621094 63.113281 C 34.355469 62.988281 34.148438 62.8125 33.992188 62.582031 C 33.839844 62.347656 33.761719 62.066406 33.761719 61.734375 C 33.761719 61.445312 33.816406 61.207031 33.933594 61.027344 C 34.046875 60.84375 34.203125 60.703125 34.394531 60.597656 C 34.585938 60.496094 34.800781 60.417969 35.03125 60.367188 C 35.265625 60.3125 35.503906 60.273438 35.738281 60.242188 C 36.050781 60.203125 36.300781 60.171875 36.492188 60.152344 C 36.6875 60.128906 36.828125 60.09375 36.917969 60.042969 C 37.007812 59.992188 37.054688 59.90625 37.054688 59.777344 L 37.054688 59.753906 C 37.054688 59.425781 36.964844 59.171875 36.785156 58.992188 C 36.609375 58.8125 36.339844 58.722656 35.976562 58.722656 C 35.605469 58.722656 35.3125 58.804688 35.097656 58.964844 C 34.886719 59.128906 34.738281 59.300781 34.652344 59.488281 L 33.90625 59.222656 C 34.039062 58.914062 34.214844 58.675781 34.4375 58.503906 C 34.660156 58.328125 34.90625 58.207031 35.167969 58.140625 C 35.433594 58.070312 35.695312 58.035156 35.953125 58.035156 C 36.117188 58.035156 36.304688 58.054688 36.515625 58.09375 C 36.730469 58.132812 36.9375 58.210938 37.136719 58.328125 C 37.339844 58.445312 37.503906 58.625 37.636719 58.867188 C 37.769531 59.105469 37.835938 59.429688 37.835938 59.832031 L 37.835938 63.175781 L 37.054688 63.175781 L 37.054688 62.488281 L 37.015625 62.488281 C 36.960938 62.597656 36.871094 62.714844 36.75 62.839844 C 36.625 62.964844 36.460938 63.074219 36.253906 63.160156 C 36.046875 63.25 35.796875 63.292969 35.5 63.292969 Z M 35.621094 62.59375 C 35.929688 62.59375 36.191406 62.53125 36.402344 62.410156 C 36.617188 62.289062 36.78125 62.132812 36.886719 61.941406 C 37 61.75 37.054688 61.550781 37.054688 61.335938 L 37.054688 60.625 C 37.019531 60.664062 36.949219 60.699219 36.835938 60.734375 C 36.722656 60.765625 36.597656 60.792969 36.449219 60.816406 C 36.304688 60.839844 36.164062 60.859375 36.027344 60.875 C 35.894531 60.890625 35.785156 60.902344 35.699219 60.914062 C 35.496094 60.941406 35.304688 60.984375 35.128906 61.042969 C 34.953125 61.101562 34.8125 61.1875 34.703125 61.304688 C 34.597656 61.417969 34.542969 61.574219 34.542969 61.773438 C 34.542969 62.046875 34.644531 62.25 34.847656 62.390625 C 35.050781 62.523438 35.308594 62.59375 35.621094 62.59375 Z M 35.621094 62.59375 " fill-opacity="1" fill-rule="nonzero"/><path fill="#090e10" d="M 40.390625 63.175781 L 40.390625 58.101562 L 41.144531 58.101562 L 41.144531 58.867188 L 41.199219 58.867188 C 41.292969 58.617188 41.460938 58.410156 41.703125 58.253906 C 41.949219 58.097656 42.222656 58.019531 42.527344 58.019531 C 42.585938 58.019531 42.65625 58.023438 42.742188 58.023438 C 42.828125 58.027344 42.894531 58.03125 42.9375 58.035156 L 42.9375 58.828125 C 42.914062 58.820312 42.851562 58.808594 42.757812 58.796875 C 42.664062 58.78125 42.566406 58.773438 42.460938 58.773438 C 42.210938 58.773438 41.992188 58.824219 41.796875 58.929688 C 41.605469 59.03125 41.453125 59.171875 41.339844 59.351562 C 41.226562 59.53125 41.171875 59.734375 41.171875 59.964844 L 41.171875 63.175781 Z M 40.390625 63.175781 " fill-opacity="1" fill-rule="nonzero"/><path fill="#090e10" d="M 46.488281 63.292969 C 46.167969 63.292969 45.875 63.234375 45.609375 63.113281 C 45.347656 62.988281 45.136719 62.8125 44.984375 62.582031 C 44.828125 62.347656 44.75 62.066406 44.75 61.734375 C 44.75 61.445312 44.808594 61.207031 44.921875 61.027344 C 45.039062 60.84375 45.191406 60.703125 45.382812 60.597656 C 45.578125 60.496094 45.789062 60.417969 46.023438 60.367188 C 46.257812 60.3125 46.492188 60.273438 46.730469 60.242188 C 47.039062 60.203125 47.289062 60.171875 47.480469 60.152344 C 47.675781 60.128906 47.820312 60.09375 47.90625 60.042969 C 47.996094 59.992188 48.042969 59.90625 48.042969 59.777344 L 48.042969 59.753906 C 48.042969 59.425781 47.953125 59.171875 47.773438 58.992188 C 47.597656 58.8125 47.328125 58.722656 46.96875 58.722656 C 46.59375 58.722656 46.300781 58.804688 46.089844 58.964844 C 45.875 59.128906 45.726562 59.300781 45.640625 59.488281 L 44.894531 59.222656 C 45.027344 58.914062 45.207031 58.675781 45.425781 58.503906 C 45.652344 58.328125 45.894531 58.207031 46.15625 58.140625 C 46.421875 58.070312 46.683594 58.035156 46.941406 58.035156 C 47.105469 58.035156 47.292969 58.054688 47.503906 58.09375 C 47.71875 58.132812 47.925781 58.210938 48.125 58.328125 C 48.328125 58.445312 48.496094 58.625 48.628906 58.867188 C 48.761719 59.105469 48.828125 59.429688 48.828125 59.832031 L 48.828125 63.175781 L 48.042969 63.175781 L 48.042969 62.488281 L 48.003906 62.488281 C 47.949219 62.597656 47.863281 62.714844 47.738281 62.839844 C 47.613281 62.964844 47.449219 63.074219 47.242188 63.160156 C 47.039062 63.25 46.785156 63.292969 46.488281 63.292969 Z M 46.609375 62.59375 C 46.917969 62.59375 47.179688 62.53125 47.394531 62.410156 C 47.605469 62.289062 47.769531 62.132812 47.878906 61.941406 C 47.988281 61.75 48.042969 61.550781 48.042969 61.335938 L 48.042969 60.625 C 48.011719 60.664062 47.9375 60.699219 47.824219 60.734375 C 47.714844 60.765625 47.585938 60.792969 47.4375 60.816406 C 47.296875 60.839844 47.15625 60.859375 47.019531 60.875 C 46.882812 60.890625 46.773438 60.902344 46.6875 60.914062 C 46.484375 60.941406 46.296875 60.984375 46.117188 61.042969 C 45.941406 61.101562 45.800781 61.1875 45.691406 61.304688 C 45.585938 61.417969 45.535156 61.574219 45.535156 61.773438 C 45.535156 62.046875 45.632812 62.25 45.835938 62.390625 C 46.039062 62.523438 46.296875 62.59375 46.609375 62.59375 Z M 46.609375 62.59375 " fill-opacity="1" fill-rule="nonzero"/><path fill="#090e10" d="M 52.160156 60.121094 L 52.160156 63.175781 L 51.378906 63.175781 L 51.378906 58.101562 L 52.136719 58.101562 L 52.136719 58.894531 L 52.203125 58.894531 C 52.320312 58.636719 52.503906 58.429688 52.746094 58.273438 C 52.988281 58.113281 53.304688 58.035156 53.6875 58.035156 C 54.035156 58.035156 54.335938 58.105469 54.59375 58.246094 C 54.855469 58.382812 55.054688 58.597656 55.199219 58.878906 C 55.34375 59.160156 55.414062 59.519531 55.414062 59.949219 L 55.414062 63.175781 L 54.632812 63.175781 L 54.632812 60.003906 C 54.632812 59.605469 54.527344 59.292969 54.320312 59.070312 C 54.113281 58.847656 53.828125 58.734375 53.464844 58.734375 C 53.214844 58.734375 52.988281 58.789062 52.792969 58.894531 C 52.597656 59.003906 52.445312 59.160156 52.332031 59.367188 C 52.21875 59.574219 52.160156 59.828125 52.160156 60.121094 Z M 52.160156 60.121094 " fill-opacity="1" fill-rule="nonzero"/><path fill="#090e10" d="M 60.105469 63.28125 C 59.617188 63.28125 59.191406 63.171875 58.835938 62.957031 C 58.480469 62.738281 58.207031 62.433594 58.015625 62.046875 C 57.824219 61.652344 57.730469 61.195312 57.730469 60.675781 C 57.730469 60.15625 57.824219 59.699219 58.015625 59.300781 C 58.207031 58.902344 58.476562 58.59375 58.820312 58.371094 C 59.164062 58.144531 59.566406 58.035156 60.027344 58.035156 C 60.292969 58.035156 60.554688 58.078125 60.8125 58.167969 C 61.074219 58.253906 61.308594 58.398438 61.519531 58.597656 C 61.734375 58.792969 61.902344 59.050781 62.027344 59.375 C 62.15625 59.699219 62.21875 60.097656 62.21875 60.570312 L 62.21875 60.902344 L 58.289062 60.902344 L 58.289062 60.226562 L 61.421875 60.226562 C 61.421875 59.941406 61.363281 59.6875 61.25 59.460938 C 61.136719 59.238281 60.972656 59.058594 60.765625 58.929688 C 60.554688 58.800781 60.308594 58.734375 60.027344 58.734375 C 59.714844 58.734375 59.445312 58.8125 59.21875 58.964844 C 58.992188 59.117188 58.816406 59.316406 58.695312 59.558594 C 58.574219 59.804688 58.511719 60.066406 58.511719 60.347656 L 58.511719 60.796875 C 58.511719 61.179688 58.578125 61.503906 58.710938 61.769531 C 58.847656 62.035156 59.035156 62.238281 59.273438 62.375 C 59.511719 62.511719 59.789062 62.582031 60.105469 62.582031 C 60.3125 62.582031 60.5 62.550781 60.664062 62.496094 C 60.832031 62.433594 60.976562 62.347656 61.097656 62.230469 C 61.222656 62.109375 61.316406 61.964844 61.382812 61.789062 L 62.136719 62 C 62.058594 62.253906 61.925781 62.480469 61.738281 62.671875 C 61.546875 62.863281 61.316406 63.015625 61.039062 63.121094 C 60.761719 63.226562 60.453125 63.28125 60.105469 63.28125 Z M 60.105469 63.28125 " fill-opacity="1" fill-rule="nonzero"/><path fill="#090e10" d="M 66.75 58.101562 L 66.75 58.761719 L 64.105469 58.761719 L 64.105469 58.101562 Z M 64.875 56.882812 L 65.660156 56.882812 L 65.660156 61.722656 C 65.660156 61.941406 65.691406 62.105469 65.757812 62.214844 C 65.824219 62.324219 65.90625 62.398438 66.007812 62.433594 C 66.113281 62.46875 66.222656 62.488281 66.335938 62.488281 C 66.425781 62.488281 66.496094 62.484375 66.550781 62.472656 C 66.605469 62.464844 66.648438 62.453125 66.683594 62.449219 L 66.84375 63.148438 C 66.789062 63.167969 66.714844 63.1875 66.621094 63.207031 C 66.523438 63.230469 66.402344 63.242188 66.257812 63.242188 C 66.035156 63.242188 65.820312 63.195312 65.605469 63.097656 C 65.398438 63.003906 65.222656 62.859375 65.082031 62.667969 C 64.945312 62.472656 64.875 62.226562 64.875 61.933594 Z M 64.875 56.882812 " fill-opacity="1" fill-rule="nonzero"/><path fill="#090e10" d="M 78.378906 58.523438 L 77.554688 58.523438 C 77.503906 58.289062 77.421875 58.082031 77.296875 57.902344 C 77.179688 57.722656 77.03125 57.574219 76.859375 57.453125 C 76.691406 57.328125 76.5 57.238281 76.292969 57.175781 C 76.085938 57.113281 75.867188 57.082031 75.640625 57.082031 C 75.230469 57.082031 74.859375 57.1875 74.523438 57.394531 C 74.191406 57.601562 73.925781 57.90625 73.730469 58.308594 C 73.535156 58.710938 73.4375 59.207031 73.4375 59.792969 C 73.4375 60.378906 73.535156 60.871094 73.730469 61.273438 C 73.925781 61.679688 74.191406 61.984375 74.523438 62.191406 C 74.859375 62.398438 75.230469 62.5 75.640625 62.5 C 75.867188 62.5 76.085938 62.46875 76.292969 62.410156 C 76.5 62.347656 76.691406 62.253906 76.859375 62.132812 C 77.03125 62.011719 77.179688 61.859375 77.296875 61.683594 C 77.421875 61.5 77.503906 61.292969 77.554688 61.058594 L 78.378906 61.058594 C 78.316406 61.40625 78.203125 61.714844 78.039062 61.988281 C 77.875 62.261719 77.671875 62.496094 77.429688 62.6875 C 77.183594 62.875 76.910156 63.019531 76.609375 63.117188 C 76.308594 63.21875 75.984375 63.265625 75.640625 63.265625 C 75.0625 63.265625 74.546875 63.125 74.09375 62.84375 C 73.644531 62.5625 73.289062 62.160156 73.03125 61.640625 C 72.769531 61.121094 72.640625 60.503906 72.640625 59.792969 C 72.640625 59.078125 72.769531 58.460938 73.03125 57.941406 C 73.289062 57.421875 73.644531 57.019531 74.09375 56.738281 C 74.546875 56.457031 75.0625 56.316406 75.640625 56.316406 C 75.984375 56.316406 76.308594 56.367188 76.609375 56.464844 C 76.910156 56.5625 77.183594 56.710938 77.429688 56.902344 C 77.671875 57.089844 77.875 57.320312 78.039062 57.59375 C 78.203125 57.867188 78.316406 58.175781 78.378906 58.523438 Z M 78.378906 58.523438 " fill-opacity="1" fill-rule="nonzero"/><path fill="#090e10" d="M 82.796875 63.28125 C 82.335938 63.28125 81.929688 63.171875 81.582031 62.953125 C 81.238281 62.734375 80.96875 62.429688 80.773438 62.039062 C 80.582031 61.644531 80.484375 61.1875 80.484375 60.664062 C 80.484375 60.136719 80.582031 59.675781 80.773438 59.28125 C 80.96875 58.886719 81.238281 58.578125 81.582031 58.359375 C 81.929688 58.144531 82.335938 58.035156 82.796875 58.035156 C 83.253906 58.035156 83.660156 58.144531 84.003906 58.359375 C 84.351562 58.578125 84.621094 58.886719 84.8125 59.28125 C 85.007812 59.675781 85.105469 60.136719 85.105469 60.664062 C 85.105469 61.1875 85.007812 61.644531 84.8125 62.039062 C 84.621094 62.429688 84.351562 62.734375 84.003906 62.953125 C 83.660156 63.171875 83.253906 63.28125 82.796875 63.28125 Z M 82.796875 62.582031 C 83.144531 62.582031 83.433594 62.492188 83.660156 62.3125 C 83.882812 62.132812 84.050781 61.898438 84.160156 61.609375 C 84.269531 61.316406 84.320312 61.003906 84.320312 60.664062 C 84.320312 60.324219 84.269531 60.007812 84.160156 59.714844 C 84.050781 59.421875 83.882812 59.1875 83.660156 59.003906 C 83.433594 58.824219 83.144531 58.734375 82.796875 58.734375 C 82.445312 58.734375 82.15625 58.824219 81.933594 59.003906 C 81.707031 59.1875 81.539062 59.421875 81.429688 59.714844 C 81.324219 60.007812 81.269531 60.324219 81.269531 60.664062 C 81.269531 61.003906 81.324219 61.316406 81.429688 61.609375 C 81.539062 61.898438 81.707031 62.132812 81.933594 62.3125 C 82.15625 62.492188 82.445312 62.582031 82.796875 62.582031 Z M 82.796875 62.582031 " fill-opacity="1" fill-rule="nonzero"/><path fill="#090e10" d="M 87.421875 63.175781 L 87.421875 58.101562 L 88.179688 58.101562 L 88.179688 58.894531 L 88.246094 58.894531 C 88.351562 58.621094 88.523438 58.410156 88.761719 58.261719 C 89 58.109375 89.28125 58.035156 89.613281 58.035156 C 89.949219 58.035156 90.230469 58.109375 90.453125 58.261719 C 90.679688 58.410156 90.855469 58.621094 90.980469 58.894531 L 91.035156 58.894531 C 91.164062 58.632812 91.363281 58.421875 91.621094 58.269531 C 91.882812 58.113281 92.199219 58.035156 92.5625 58.035156 C 93.019531 58.035156 93.390625 58.175781 93.679688 58.460938 C 93.972656 58.742188 94.117188 59.183594 94.117188 59.777344 L 94.117188 63.175781 L 93.332031 63.175781 L 93.332031 59.777344 C 93.332031 59.402344 93.230469 59.136719 93.023438 58.976562 C 92.816406 58.816406 92.574219 58.734375 92.296875 58.734375 C 91.9375 58.734375 91.660156 58.84375 91.464844 59.058594 C 91.265625 59.273438 91.167969 59.542969 91.167969 59.871094 L 91.167969 63.175781 L 90.371094 63.175781 L 90.371094 59.699219 C 90.371094 59.410156 90.277344 59.179688 90.089844 59.003906 C 89.902344 58.824219 89.660156 58.734375 89.363281 58.734375 C 89.160156 58.734375 88.96875 58.789062 88.792969 58.894531 C 88.617188 59.003906 88.476562 59.152344 88.367188 59.347656 C 88.261719 59.535156 88.207031 59.753906 88.207031 60.003906 L 88.207031 63.175781 Z M 87.421875 63.175781 " fill-opacity="1" fill-rule="nonzero"/><g clip-path="url(#id4)"><path fill="#090e10" d="M 96.671875 65.078125 L 96.671875 58.101562 L 97.425781 58.101562 L 97.425781 58.90625 L 97.519531 58.90625 C 97.578125 58.816406 97.65625 58.707031 97.757812 58.570312 C 97.863281 58.429688 98.011719 58.308594 98.203125 58.199219 C 98.398438 58.089844 98.660156 58.035156 98.992188 58.035156 C 99.421875 58.035156 99.800781 58.140625 100.128906 58.355469 C 100.457031 58.566406 100.710938 58.871094 100.894531 59.261719 C 101.078125 59.65625 101.171875 60.117188 101.171875 60.652344 C 101.171875 61.1875 101.078125 61.652344 100.894531 62.046875 C 100.710938 62.441406 100.457031 62.746094 100.132812 62.960938 C 99.808594 63.171875 99.433594 63.28125 99.007812 63.28125 C 98.679688 63.28125 98.417969 63.226562 98.21875 63.117188 C 98.023438 63.007812 97.871094 62.882812 97.765625 62.746094 C 97.660156 62.605469 97.578125 62.488281 97.519531 62.394531 L 97.453125 62.394531 L 97.453125 65.078125 Z M 97.441406 60.636719 C 97.441406 61.019531 97.496094 61.359375 97.609375 61.652344 C 97.722656 61.941406 97.886719 62.171875 98.105469 62.335938 C 98.320312 62.5 98.585938 62.582031 98.902344 62.582031 C 99.226562 62.582031 99.5 62.496094 99.722656 62.324219 C 99.941406 62.148438 100.109375 61.914062 100.21875 61.621094 C 100.332031 61.328125 100.386719 61 100.386719 60.636719 C 100.386719 60.28125 100.332031 59.960938 100.222656 59.671875 C 100.113281 59.382812 99.949219 59.15625 99.726562 58.988281 C 99.507812 58.820312 99.234375 58.734375 98.902344 58.734375 C 98.582031 58.734375 98.316406 58.816406 98.097656 58.976562 C 97.878906 59.132812 97.71875 59.355469 97.605469 59.644531 C 97.496094 59.925781 97.441406 60.257812 97.441406 60.636719 Z M 97.441406 60.636719 " fill-opacity="1" fill-rule="nonzero"/></g><path fill="#090e10" d="M 104.988281 63.292969 C 104.667969 63.292969 104.371094 63.234375 104.109375 63.113281 C 103.847656 62.988281 103.636719 62.8125 103.480469 62.582031 C 103.328125 62.347656 103.25 62.066406 103.25 61.734375 C 103.25 61.445312 103.308594 61.207031 103.421875 61.027344 C 103.539062 60.84375 103.691406 60.703125 103.882812 60.597656 C 104.078125 60.496094 104.289062 60.417969 104.519531 60.367188 C 104.753906 60.3125 104.992188 60.273438 105.226562 60.242188 C 105.539062 60.203125 105.789062 60.171875 105.980469 60.152344 C 106.175781 60.128906 106.320312 60.09375 106.40625 60.042969 C 106.496094 59.992188 106.542969 59.90625 106.542969 59.777344 L 106.542969 59.753906 C 106.542969 59.425781 106.453125 59.171875 106.273438 58.992188 C 106.097656 58.8125 105.828125 58.722656 105.46875 58.722656 C 105.09375 58.722656 104.800781 58.804688 104.585938 58.964844 C 104.375 59.128906 104.226562 59.300781 104.140625 59.488281 L 103.394531 59.222656 C 103.527344 58.914062 103.707031 58.675781 103.925781 58.503906 C 104.148438 58.328125 104.394531 58.207031 104.65625 58.140625 C 104.921875 58.070312 105.183594 58.035156 105.441406 58.035156 C 105.605469 58.035156 105.792969 58.054688 106.003906 58.09375 C 106.21875 58.132812 106.425781 58.210938 106.625 58.328125 C 106.828125 58.445312 106.996094 58.625 107.128906 58.867188 C 107.261719 59.105469 107.328125 59.429688 107.328125 59.832031 L 107.328125 63.175781 L 106.542969 63.175781 L 106.542969 62.488281 L 106.503906 62.488281 C 106.449219 62.597656 106.359375 62.714844 106.238281 62.839844 C 106.113281 62.964844 105.949219 63.074219 105.742188 63.160156 C 105.535156 63.25 105.285156 63.292969 104.988281 63.292969 Z M 105.109375 62.59375 C 105.417969 62.59375 105.679688 62.53125 105.890625 62.410156 C 106.105469 62.289062 106.269531 62.132812 106.375 61.941406 C 106.488281 61.75 106.542969 61.550781 106.542969 61.335938 L 106.542969 60.625 C 106.507812 60.664062 106.4375 60.699219 106.324219 60.734375 C 106.214844 60.765625 106.085938 60.792969 105.9375 60.816406 C 105.792969 60.839844 105.652344 60.859375 105.515625 60.875 C 105.382812 60.890625 105.273438 60.902344 105.1875 60.914062 C 104.984375 60.941406 104.792969 60.984375 104.617188 61.042969 C 104.441406 61.101562 104.300781 61.1875 104.191406 61.304688 C 104.085938 61.417969 104.03125 61.574219 104.03125 61.773438 C 104.03125 62.046875 104.132812 62.25 104.335938 62.390625 C 104.539062 62.523438 104.796875 62.59375 105.109375 62.59375 Z M 105.109375 62.59375 " fill-opacity="1" fill-rule="nonzero"/><path fill="#090e10" d="M 110.660156 60.121094 L 110.660156 63.175781 L 109.878906 63.175781 L 109.878906 58.101562 L 110.636719 58.101562 L 110.636719 58.894531 L 110.703125 58.894531 C 110.820312 58.636719 111.003906 58.429688 111.246094 58.273438 C 111.488281 58.113281 111.804688 58.035156 112.1875 58.035156 C 112.535156 58.035156 112.835938 58.105469 113.09375 58.246094 C 113.355469 58.382812 113.554688 58.597656 113.699219 58.878906 C 113.84375 59.160156 113.914062 59.519531 113.914062 59.949219 L 113.914062 63.175781 L 113.132812 63.175781 L 113.132812 60.003906 C 113.132812 59.605469 113.027344 59.292969 112.820312 59.070312 C 112.613281 58.847656 112.324219 58.734375 111.960938 58.734375 C 111.710938 58.734375 111.488281 58.789062 111.292969 58.894531 C 111.097656 59.003906 110.945312 59.160156 110.832031 59.367188 C 110.71875 59.574219 110.660156 59.828125 110.660156 60.121094 Z M 110.660156 60.121094 " fill-opacity="1" fill-rule="nonzero"/><g clip-path="url(#id5)"><path fill="#090e10" d="M 116.789062 65.078125 C 116.65625 65.078125 116.539062 65.066406 116.433594 65.046875 C 116.332031 65.023438 116.257812 65.003906 116.21875 64.984375 L 116.417969 64.296875 C 116.609375 64.347656 116.777344 64.363281 116.921875 64.351562 C 117.070312 64.335938 117.199219 64.273438 117.3125 64.15625 C 117.425781 64.042969 117.53125 63.855469 117.625 63.597656 L 117.773438 63.203125 L 115.886719 58.101562 L 116.738281 58.101562 L 118.144531 62.144531 L 118.199219 62.144531 L 119.605469 58.101562 L 120.457031 58.101562 L 118.289062 63.914062 C 118.195312 64.175781 118.074219 64.394531 117.929688 64.566406 C 117.785156 64.738281 117.617188 64.867188 117.429688 64.953125 C 117.238281 65.035156 117.027344 65.078125 116.789062 65.078125 Z M 116.789062 65.078125 " fill-opacity="1" fill-rule="nonzero"/></g></svg>