<svg xmlns="http://www.w3.org/2000/svg" xmlns:xlink="http://www.w3.org/1999/xlink" width="220" zoomAndPan="magnify" viewBox="0 0 165 82.499998" height="110" preserveAspectRatio="xMidYMid meet" version="1.0"><defs><clipPath id="0f6f3c5e37"><path d="M 0.496094 0 L 164.503906 0 L 164.503906 82.003906 L 0.496094 82.003906 Z M 0.496094 0 " clip-rule="nonzero"/></clipPath></defs><g clip-path="url(#0f6f3c5e37)"><path fill="#ffffff" d="M 0.496094 0 L 164.503906 0 L 164.503906 89.457031 L 0.496094 89.457031 Z M 0.496094 0 " fill-opacity="1" fill-rule="nonzero"/><path fill="#ffffff" d="M 0.496094 0 L 164.503906 0 L 164.503906 82.003906 L 0.496094 82.003906 Z M 0.496094 0 " fill-opacity="1" fill-rule="nonzero"/><path fill="#ffffff" d="M 0.496094 0 L 164.503906 0 L 164.503906 82.003906 L 0.496094 82.003906 Z M 0.496094 0 " fill-opacity="1" fill-rule="nonzero"/></g><path fill="#002f56" d="M 86.035156 49.230469 L 74 30.417969 L 73.984375 46.226562 L 53.242188 11.304688 L 38.648438 11.304688 L 38.648438 70.253906 L 53.078125 70.253906 L 53.125 35.378906 L 73.652344 68.691406 Z M 86.035156 49.230469 " fill-opacity="1" fill-rule="nonzero"/><path fill="#002f56" d="M 74.003906 26.457031 L 88.414062 26.457031 L 88.449219 26.292969 L 88.449219 11.304688 L 74.019531 11.304688 L 74 26.292969 Z M 74.003906 26.457031 " fill-opacity="1" fill-rule="nonzero"/><path fill="#96d7e8" d="M 110.6875 42.800781 C 107.234375 42.738281 104.117188 44.851562 102.902344 48.085938 C 104.921875 45.0625 108.773438 43.847656 112.164062 45.164062 C 113.730469 45.800781 115.789062 46.832031 117.421875 46.277344 C 115.867188 44.101562 113.359375 42.804688 110.6875 42.800781 Z M 110.6875 42.800781 " fill-opacity="1" fill-rule="nonzero"/><path fill="#48c4e5" d="M 127.039062 49.894531 C 127.039062 48.128906 126.078125 47.71875 124.082031 46.992188 C 122.601562 46.480469 120.921875 45.898438 119.703125 44.304688 C 119.460938 43.988281 119.242188 43.632812 119.003906 43.253906 C 118.476562 42.277344 117.761719 41.414062 116.898438 40.714844 C 115.734375 39.859375 114.207031 39.445312 112.226562 39.445312 C 108.253906 39.445312 104.675781 41.84375 103.164062 45.519531 C 105.078125 42.863281 108.257812 41.425781 111.515625 41.738281 C 114.769531 42.054688 117.617188 44.078125 118.984375 47.050781 C 119.667969 48.179688 121.015625 48.71875 122.289062 48.371094 C 124.234375 47.953125 124.101562 49.796875 127.042969 50.421875 Z M 127.039062 49.894531 " fill-opacity="1" fill-rule="nonzero"/><path fill="#002f56" d="M 133.460938 49.515625 L 133.460938 49.476562 C 133.414062 37.785156 123.925781 27.785156 112.226562 27.785156 C 105.082031 27.78125 98.417969 31.375 94.492188 37.34375 L 94.417969 37.214844 L 88.410156 27.785156 L 74.003906 27.785156 L 87.691406 49.222656 L 74.335938 70.253906 L 88.328125 70.253906 L 94.417969 60.902344 L 100.613281 70.253906 L 114.609375 70.253906 L 101.917969 50.28125 C 101.707031 49.894531 101.59375 49.460938 101.585938 49.015625 C 101.585938 46.195312 102.703125 43.488281 104.699219 41.496094 C 106.695312 39.5 109.398438 38.378906 112.222656 38.382812 C 118.101562 38.382812 119.085938 41.898438 120.355469 43.550781 C 122.859375 46.816406 127.863281 45.386719 127.863281 49.644531 C 127.878906 50.640625 128.425781 51.554688 129.296875 52.042969 C 130.167969 52.527344 131.230469 52.511719 132.089844 52 C 132.945312 51.488281 133.464844 50.558594 133.449219 49.5625 L 133.449219 49.515625 Z M 133.460938 49.515625 " fill-opacity="1" fill-rule="nonzero"/><path fill="#002f56" d="M 133.472656 52.527344 C 133.617188 53.519531 133.476562 54.535156 133.066406 55.453125 C 132.269531 57.300781 130.9375 56.683594 130.9375 56.683594 C 130.9375 56.683594 129.792969 56.125 130.488281 55.054688 C 131.261719 53.863281 132.789062 54 133.472656 52.527344 Z M 133.472656 52.527344 " fill-opacity="1" fill-rule="nonzero"/></svg>